<?xml version="1.0" standalone="no"?>
<!DOCTYPE svg PUBLIC "-//W3C//DTD SVG 20010904//EN"
 "http://www.w3.org/TR/2001/REC-SVG-20010904/DTD/svg10.dtd">
<svg version="1.0" xmlns="http://www.w3.org/2000/svg"
 width="700.000000pt" height="700.000000pt" viewBox="0 0 700.000000 700.000000"
 preserveAspectRatio="xMidYMid meet">
<metadata>
Created by potrace 1.14, written by Peter Selinger 2001-2017
</metadata>
<g transform="translate(0.000000,700.000000) scale(0.100000,-0.100000)"
fill="#000000" stroke="none">
<path d="M2807 5615 c-378 -756 -686 -1375 -684 -1375 2 0 19 21 38 48 211
294 534 500 920 586 166 37 315 49 513 43 423 -13 749 -130 1027 -369 65 -57
129 -128 217 -243 12 -17 -282 581 -655 1328 -373 746 -680 1357 -683 1357 -3
0 -314 -619 -693 -1375z"/>
<path d="M5013 3959 c49 -139 85 -325 94 -492 l6 -117 -523 2 -524 3 -13 80
c-25 146 -108 282 -210 342 -71 41 -159 64 -273 70 -231 12 -393 -46 -477
-171 -43 -63 -57 -114 -57 -211 0 -87 19 -144 70 -210 36 -48 143 -117 244
-158 82 -33 131 -47 546 -156 397 -104 644 -229 858 -431 209 -198 332 -436
387 -749 30 -168 30 -429 -1 -606 -53 -311 -161 -528 -364 -731 -147 -147
-290 -237 -506 -317 -101 -37 -280 -81 -395 -96 -43 -5 539 -9 1528 -10 l1597
-1 -991 1982 c-545 1091 -994 1985 -997 1988 -3 3 -3 -2 1 -11z"/>
<path d="M987 1974 l-987 -1974 1628 1 c1395 1 1614 3 1536 14 -392 58 -699
200 -930 431 -271 272 -415 650 -440 1157 l-7 137 520 0 520 0 7 -67 c31 -315
197 -522 471 -589 98 -25 326 -24 414 0 89 24 155 59 213 114 58 54 91 114
108 196 35 170 -47 311 -238 409 -118 61 -239 101 -572 187 -333 86 -419 114
-577 190 -364 174 -580 401 -687 720 -52 155 -69 274 -70 485 0 196 16 331 59
477 13 46 23 83 22 85 -2 1 -447 -887 -990 -1973z"/>
</g>
</svg>
